<svg width="452" height="92" viewBox="0 0 452 92" fill="none" xmlns="http://www.w3.org/2000/svg">
<path fill-rule="evenodd" clip-rule="evenodd" d="M249.109 85.2065H272.248L282.183 55.1532L259.344 57.126L249.109 85.2065ZM292.824 36.6732L290.558 29.8181L288.128 37.1681L265.758 39.5255L277.977 6H303.363L332.119 85.2065H308.867L298.468 53.7466L298.555 53.7391L292.86 36.6694L292.824 36.6732ZM44.1611 62.9598L44.0897 62.856L30.9475 85.2136H5.89861L31.6214 44.6553L5 6.00705H30.9475L45.8869 27.8029L58.6921 6.00705H83.741L58.3552 45.8912L68.2984 60.3346L44.2123 62.8729L44.1611 62.9598ZM52.4465 74.9972L59.4784 85.2136H85.4259L76.9363 72.8818L52.4465 74.9972ZM92.5759 71.5309L87.589 85.2136H110.728L115.918 69.5147L92.5759 71.5309ZM136.739 53.1221L129.038 29.8252L120.781 54.8038L97.7892 57.2268L116.457 6.00705H141.843L158.129 50.8679L136.739 53.1221ZM141.429 67.3111L147.347 85.2136H170.598L163.41 65.4125L141.429 67.3111ZM174.404 64.4628V85.2136H196.42V62.5611L174.404 64.4628ZM196.436 62.5553L223.266 60.2731V85.2136H245.282V6.00705H223.266V43.9587L196.42 46.7479V6.00705H174.404V49.1527L196.436 46.831V62.5553ZM351.886 30.4966V6.00705H329.982V32.7873L351.886 30.4966ZM351.886 49.1955V51.9581C351.886 56.2273 352.859 59.5229 354.806 61.8448C356.828 64.1667 359.861 65.3277 363.905 65.3277C367.948 65.3277 370.981 64.1667 373.003 61.8448C375.1 59.448 376.148 56.1524 376.148 51.9581V47.1285L398.164 45.2528V51.9581C398.164 59.2233 396.629 65.44 393.559 70.6081C390.489 75.7013 386.295 79.5586 380.978 82.1801C375.736 84.7267 369.895 86 363.455 86C357.015 86 351.249 84.7267 346.157 82.1801C341.14 79.5586 337.171 75.7013 334.25 70.6081C331.405 65.5149 329.982 59.2982 329.982 51.9581V51.0616L351.886 49.1955ZM398.164 25.6569L376.148 27.9593V6.00705H398.164V25.6569Z" fill="white"/>
<path d="M445.318 28.9952C446.934 29.7331 447.121 31.8928 445.655 32.8828L422.903 48.2469C421.437 49.2368 419.417 48.3145 419.267 46.5867L416.941 19.7709C416.791 18.0431 418.624 16.8056 420.24 17.5435L445.318 28.9952Z" fill="white"/>
</svg>
